<svg width="16" height="19" viewBox="0 0 16 19" fill="none"
  xmlns="http://www.w3.org/2000/svg">
  <path d="M15.0456 14.318C14.7847 14.9206 14.4759 15.4754 14.1181 15.9854C13.6305 16.6807 13.2312 17.162 12.9234 17.4293C12.4464 17.868 11.9353 18.0926 11.388 18.1054C10.9951 18.1054 10.5213 17.9936 9.96974 17.7668C9.41638 17.5411 8.90784 17.4293 8.44285 17.4293C7.95518 17.4293 7.43215 17.5411 6.87272 17.7668C6.31243 17.9936 5.86107 18.1118 5.51597 18.1235C4.99114 18.1459 4.46801 17.9148 3.94584 17.4293C3.61257 17.1386 3.1957 16.6403 2.69632 15.9343C2.16052 15.1805 1.72002 14.3063 1.37493 13.3096C1.00534 12.2331 0.820068 11.1907 0.820068 10.1815C0.820068 9.02548 1.06987 8.02842 1.57021 7.19288C1.96343 6.52175 2.48656 5.99234 3.14129 5.6037C3.79603 5.21505 4.50347 5.017 5.26532 5.00433C5.68218 5.00433 6.22884 5.13328 6.90817 5.3867C7.58559 5.64097 8.02055 5.76991 8.21126 5.76991C8.35383 5.76991 8.83703 5.61914 9.65617 5.31855C10.4308 5.03979 11.0846 4.92437 11.6202 4.96983C13.0715 5.08696 14.1618 5.65907 14.8869 6.68977C13.5889 7.47622 12.9469 8.57774 12.9597 9.99081C12.9714 11.0915 13.3707 12.0074 14.1554 12.7346C14.511 13.0722 14.9082 13.3331 15.3501 13.5183C15.2543 13.7962 15.1531 14.0624 15.0456 14.318ZM11.7171 1.2201C11.7171 2.08279 11.4019 2.88829 10.7737 3.63385C10.0155 4.52018 9.09854 5.03234 8.10414 4.95152C8.09147 4.84802 8.08412 4.73909 8.08412 4.62463C8.08412 3.79644 8.44466 2.91012 9.08491 2.18543C9.40456 1.81851 9.81109 1.51341 10.3041 1.27004C10.796 1.03029 11.2613 0.897705 11.6989 0.875C11.7117 0.990329 11.7171 1.10567 11.7171 1.22009V1.2201Z" fill="black"/>
</svg>
