<svg width="64" height="64" viewBox="0 0 64 64" fill="none" xmlns="http://www.w3.org/2000/svg">
<path d="M63.0326 39.7455C58.7586 56.8885 41.3955 67.3215 24.2505 63.0465C7.11254 58.7725 -3.32047 41.4085 0.95553 24.2665C5.22753 7.12149 22.5906 -3.3125 39.7306 0.961502C56.8746 5.2355 67.3066 22.6015 63.0326 39.7455Z" fill="#F7931A"/>
<path d="M46.1026 27.4453C46.7396 23.1873 43.4976 20.8983 39.0646 19.3713L40.5026 13.6033L36.9916 12.7283L35.5916 18.3443C34.6686 18.1143 33.7206 17.8973 32.7786 17.6823L34.1886 12.0293L30.6796 11.1543L29.2406 16.9203C28.4766 16.7463 27.7266 16.5743 26.9986 16.3933L27.0026 16.3753L22.1606 15.1663L21.2266 18.9163C21.2266 18.9163 23.8316 19.5133 23.7766 19.5503C25.1986 19.9053 25.4556 20.8463 25.4126 21.5923L23.7746 28.1633C23.8726 28.1883 23.9996 28.2243 24.1396 28.2803C24.0226 28.2513 23.8976 28.2193 23.7686 28.1883L21.4726 37.3933C21.2986 37.8253 20.8576 38.4733 19.8636 38.2273C19.8986 38.2783 17.3116 37.5903 17.3116 37.5903L15.5686 41.6093L20.1376 42.7483C20.9876 42.9613 21.8206 43.1843 22.6406 43.3943L21.1876 49.2283L24.6946 50.1033L26.1336 44.3313C27.0916 44.5913 28.0216 44.8313 28.9316 45.0573L27.4976 50.8023L31.0086 51.6773L32.4616 45.8543C38.4486 46.9873 42.9506 46.5303 44.8456 41.1153C46.3726 36.7553 44.7696 34.2403 41.6196 32.6003C43.9136 32.0713 45.6416 30.5623 46.1026 27.4453ZM38.0806 38.6943C36.9956 43.0543 29.6546 40.6973 27.2746 40.1063L29.2026 32.3773C31.5826 32.9713 39.2146 34.1473 38.0806 38.6943ZM39.1666 27.3823C38.1766 31.3483 32.0666 29.3333 30.0846 28.8393L31.8326 21.8293C33.8146 22.3233 40.1976 23.2453 39.1666 27.3823Z" fill="white"/>
</svg>
