<svg width="265" height="264" viewBox="0 0 265 264" fill="none" xmlns="http://www.w3.org/2000/svg">
<path d="M132.148 26.2246L160.932 42.6722L160.932 66.0863L132.148 82.4205L132.148 26.2246Z" fill="#FF1E6E"/>
<path d="M132.148 237.305L160.932 220.857L160.932 197.442L132.148 181.109L132.148 237.305Z" fill="#6E072C"/>
<path d="M103.365 26.2246L132.148 42.6722L132.148 82.4205L103.365 65.9729L103.365 26.2246Z" fill="#6E072C"/>
<path d="M103.365 237.304L132.148 220.856L132.148 181.108L103.365 197.556L103.365 237.304Z" fill="#FF1E6E"/>
<path d="M74.5825 82.4231L103.366 98.8707L103.366 131.766L74.5825 115.318L74.5825 82.4231Z" fill="#6E072C"/>
<path d="M160.931 131.764L189.714 148.212L189.714 181.107L160.931 164.66L160.931 131.764Z" fill="#6E072C"/>
<path d="M132.148 82.4229L103.365 98.8705L103.365 131.766L132.148 115.318L132.148 82.4229Z" fill="#FF1E6E"/>
<path d="M160.931 131.764L132.148 148.212L132.148 181.107L160.931 164.66L160.931 131.764Z" fill="#FF1E6E"/>
<path d="M103.366 65.9756L132.149 82.4231L103.366 98.8707L74.5825 82.4231L103.366 65.9756Z" fill="#A81348"/>
<path d="M160.932 65.9756L189.715 82.4231L160.932 98.8707L132.148 82.4231L160.932 65.9756Z" fill="#A81348"/>
<path d="M103.366 164.661L132.149 181.108L103.366 197.556L74.5825 181.108L103.366 164.661Z" fill="#A81348"/>
<path d="M160.932 164.661L189.715 181.108L160.932 197.556L132.148 181.108L160.932 164.661Z" fill="#A81348"/>
<path d="M132.148 115.315L160.932 131.763L132.148 148.211L103.365 131.763L132.148 115.315Z" fill="#A81348"/>
</svg>