<svg width="19" height="19" viewBox="0 0 19 19" fill="none"
  xmlns="http://www.w3.org/2000/svg">
  <path fill-rule="evenodd" clip-rule="evenodd" d="M17.78 9.69597C17.78 9.08438 17.7251 8.49631 17.6232 7.93176H9.5V11.2681H14.1418C13.9419 12.3462 13.3342 13.2597 12.4207 13.8713V16.0353H15.2082C16.8391 14.5338 17.78 12.3227 17.78 9.69597Z" fill="#4285F4"/>
  <path fill-rule="evenodd" clip-rule="evenodd" d="M9.49997 18.1249C11.8287 18.1249 13.7811 17.3526 15.2082 16.0353L12.4207 13.8712C11.6484 14.3887 10.6604 14.6945 9.49997 14.6945C7.25355 14.6945 5.35213 13.1773 4.67389 11.1387H1.79236V13.3733C3.21156 16.1921 6.12838 18.1249 9.49997 18.1249Z" fill="#34A853"/>
  <path fill-rule="evenodd" clip-rule="evenodd" d="M4.67392 11.1387C4.50142 10.6212 4.40341 10.0685 4.40341 9.5C4.40341 8.93153 4.50142 8.37875 4.67392 7.86125V5.62659H1.79239C1.20824 6.79096 0.875 8.10823 0.875 9.5C0.875 10.8918 1.20824 12.209 1.79239 13.3734L4.67392 11.1387Z" fill="#FBBC05"/>
  <path fill-rule="evenodd" clip-rule="evenodd" d="M9.49997 4.3054C10.7663 4.3054 11.9032 4.74057 12.7971 5.59523L15.2709 3.12142C13.7772 1.72966 11.8248 0.875 9.49997 0.875C6.12838 0.875 3.21156 2.80778 1.79236 5.62659L4.67389 7.86125C5.35213 5.82261 7.25355 4.3054 9.49997 4.3054Z" fill="#EA4335"/>
</svg>
